<svg width="307" height="306" viewBox="0 0 307 306" fill="none" xmlns="http://www.w3.org/2000/svg">
<g clip-path="url(#clip0_1410_60)">
<path opacity="0.744" d="M306.475 275.971C306.475 283.675 290.335 291.064 261.606 296.513C232.877 301.961 193.912 305.021 153.282 305.021C112.653 305.021 73.6881 301.961 44.9589 296.513C16.2297 291.064 0.0898438 283.675 0.0898438 275.971C0.0898438 268.266 16.2297 260.877 44.9589 255.429C73.6881 249.981 112.653 246.92 153.282 246.92C193.912 246.92 232.877 249.981 261.606 255.429C290.335 260.877 306.475 268.266 306.475 275.971Z" fill="url(#paint0_radial_1410_60)"/>
<path d="M276.733 105.279H27.859C23.4776 105.279 19.9258 108.532 19.9258 112.543V275.963C19.9258 279.975 23.4776 283.227 27.859 283.227H276.733C281.115 283.227 284.667 279.975 284.667 275.963V112.543C284.667 108.532 281.115 105.279 276.733 105.279Z" fill="url(#paint1_radial_1410_60)" stroke="#1B1B1B" stroke-width="6.64157"/>
<path opacity="0.312" d="M275.083 111.113H28.5131C27.4628 111.113 26.6113 111.893 26.6113 112.855V274.991C26.6113 275.952 27.4628 276.732 28.5131 276.732H275.083C276.133 276.732 276.985 275.952 276.985 274.991V112.855C276.985 111.893 276.133 111.113 275.083 111.113Z" stroke="url(#paint2_linear_1410_60)" stroke-width="6.64157"/>
<path d="M20.3899 100.143L280.799 98.3742C285.181 98.3444 288.759 101.572 288.791 105.584L289.009 132.422C289.041 136.434 285.516 139.71 281.134 139.74L20.725 141.508C16.3437 141.538 12.7656 138.31 12.7331 134.298L12.5157 107.461C12.4832 103.449 16.0086 100.173 20.3899 100.143Z" fill="url(#paint3_linear_1410_60)" stroke="#2B2B2B" stroke-width="6.64617"/>
<path fill-rule="evenodd" clip-rule="evenodd" d="M252.433 101.448L279.419 138.48L245.522 137.481L219 102.203L252.436 101.434L252.433 101.448ZM187.375 102.12L213.27 138.932L179.603 138.817L153.933 102.89L187.375 102.12ZM119.186 102.547L144.971 138.913L111.305 138.799L85.7501 103.316L119.186 102.547Z" fill="black"/>
<path d="M37.1921 103.038C35.8973 104.34 35.071 105.879 35.0838 107.791L35.0937 127.88L43.1957 139.177L76.5932 138.972L50.9562 103.037L37.1921 103.038Z" fill="black"/>
<path d="M21.2583 106.328L280.231 104.569C281.247 104.562 282.076 105.311 282.084 106.241L282.294 132.151C282.301 133.081 281.484 133.84 280.468 133.847L21.4955 135.606C20.4797 135.613 19.6501 134.865 19.6426 133.935L19.4327 108.025C19.4252 107.095 20.2425 106.335 21.2583 106.328Z" stroke="white" stroke-opacity="0.575" stroke-width="6.64617"/>
<path d="M265.201 3.36106L9.61694 57.3514C5.34766 58.2533 2.68517 62.1534 3.6701 66.0625L10.9347 94.8954C11.9196 98.8046 16.179 101.243 20.4483 100.341L276.032 46.3503C280.302 45.4484 282.964 41.5483 281.979 37.6392L274.715 8.80627C273.73 4.8971 269.47 2.4592 265.201 3.36106Z" fill="url(#paint4_linear_1410_60)" stroke="#2E2E2E" stroke-width="6.64405"/>
<path fill-rule="evenodd" clip-rule="evenodd" d="M52.6442 51.7178L35.7852 93.4784L68.5108 85.3118L85.3629 45.3625L52.6442 51.7178ZM117.096 36.7383L98.7516 81.2254L131.47 73.9613L149.815 30.3831L117.096 36.7383ZM184.019 23.119L166.174 68.5148L198.893 61.2507L216.744 16.7637L184.019 23.119Z" fill="black"/>
<path d="M268.864 6.18164C270.453 7.17307 271.647 8.48861 272.112 10.3507L276.7 27.1732L269.204 44.879L233.695 52.6833L250.02 10.0075L268.864 6.18164Z" fill="black"/>
<path d="M266.499 9.44011L11.7395 63.2562C10.7497 63.4653 10.1324 64.3695 10.3607 65.2758L17.2025 92.4305C17.4308 93.3368 18.4184 93.902 19.4082 93.6929L274.167 39.8769C275.157 39.6678 275.774 38.7636 275.546 37.8572L268.704 10.7026C268.476 9.79623 267.488 9.23102 266.499 9.44011Z" stroke="white" stroke-opacity="0.575" stroke-width="6.64405"/>
<path fill-rule="evenodd" clip-rule="evenodd" d="M27.6094 69.1946V118.677C27.6539 120.153 28.2811 121.563 29.3749 122.648C30.4686 123.732 31.9547 124.417 33.5576 124.575H88.3409C94.3307 124.575 97.1834 116.554 92.5539 112.322L49.4241 66.017C42.7263 57.1641 27.6094 61.4793 27.6094 69.1946Z" fill="url(#paint5_linear_1410_60)" stroke="#1B1B1B" stroke-width="6.64157"/>
<path d="M44.4624 77.7039C44.4624 78.5163 44.1099 79.2954 43.4825 79.8699C42.8551 80.4444 42.0042 80.7671 41.1169 80.7671C40.2297 80.7671 39.3787 80.4444 38.7513 79.8699C38.1239 79.2954 37.7715 78.5163 37.7715 77.7039C37.7715 76.8915 38.1239 76.1123 38.7513 75.5378C39.3787 74.9634 40.2297 74.6406 41.1169 74.6406C42.0042 74.6406 42.8551 74.9634 43.4825 75.5378C44.1099 76.1123 44.4624 76.8915 44.4624 77.7039ZM44.4624 111.292C44.4624 112.104 44.1099 112.883 43.4825 113.458C42.8551 114.032 42.0042 114.355 41.1169 114.355C40.2297 114.355 39.3787 114.032 38.7513 113.458C38.1239 112.883 37.7715 112.104 37.7715 111.292C37.7715 110.479 38.1239 109.7 38.7513 109.126C39.3787 108.551 40.2297 108.228 41.1169 108.228C42.0042 108.228 42.8551 108.551 43.4825 109.126C44.1099 109.7 44.4624 110.479 44.4624 111.292ZM79.4159 111.292C79.4159 112.104 79.0635 112.883 78.4361 113.458C77.8087 114.032 76.9578 114.355 76.0705 114.355C75.1832 114.355 74.3323 114.032 73.7049 113.458C73.0775 112.883 72.7251 112.104 72.7251 111.292C72.7251 110.479 73.0775 109.7 73.7049 109.126C74.3323 108.551 75.1832 108.228 76.0705 108.228C76.9578 108.228 77.8087 108.551 78.4361 109.126C79.0635 109.7 79.4159 110.479 79.4159 111.292Z" fill="white"/>
<path d="M168.401 259.985C166.838 261.651 137.026 241.711 135.01 242.719C132.994 243.728 129.364 280.403 127.138 280.633C124.911 280.864 114.396 245.656 112.228 245.081C110.06 244.506 84.6171 270.173 82.7691 268.861C80.921 267.549 94.6223 233.547 93.317 231.657C92.0118 229.767 56.6605 232.417 56.0555 230.176C55.4504 227.936 86.9573 211.05 87.1255 208.729C87.2936 206.408 58.5754 184.801 59.4964 182.68C60.4175 180.559 94.9876 188.691 96.5505 187.025C98.1133 185.36 89.4657 149.606 91.4819 148.597C93.4981 147.588 114.956 176.932 117.182 176.701C119.408 176.471 134.878 143.299 137.045 143.875C139.213 144.45 137.518 181.276 139.366 182.588C141.214 183.899 173.562 168.832 174.867 170.722C176.173 172.612 152.118 199.689 152.723 201.93C153.328 204.171 187.419 214.257 187.251 216.578C187.082 218.899 151.924 223.557 151.003 225.678C150.082 227.799 169.963 258.32 168.401 259.985Z" fill="#F0AE00"/>
<path d="M200.826 258.675C199.263 260.34 169.452 240.4 167.436 241.409C165.419 242.418 161.79 279.092 159.563 279.323C157.337 279.554 146.822 244.345 144.654 243.77C142.486 243.195 117.043 268.862 115.195 267.55C113.347 266.239 127.048 232.237 125.743 230.346C124.438 228.456 89.0863 231.106 88.4813 228.866C87.8762 226.625 119.383 209.739 119.551 207.419C119.719 205.098 91.0012 183.491 91.9222 181.37C92.8433 179.249 127.413 187.38 128.976 185.715C130.539 184.05 121.892 148.296 123.908 147.287C125.924 146.278 147.381 175.622 149.608 175.391C151.834 175.16 167.303 141.989 169.471 142.564C171.639 143.139 169.944 179.965 171.792 181.277C173.64 182.589 205.988 167.522 207.293 169.412C208.599 171.302 184.544 198.379 185.149 200.619C185.754 202.86 219.844 212.947 219.676 215.267C219.508 217.588 184.349 222.246 183.428 224.367C182.507 226.488 202.389 257.009 200.826 258.675Z" fill="#5F82FF"/>
<path d="M161.884 252.77C163.141 253.997 186.512 238.009 188.081 238.848C189.65 239.688 187.472 267.016 189.226 267.4C190.98 267.785 201.565 242.3 203.362 242.199C205.159 242.097 218.838 266.208 220.532 265.629C222.226 265.049 216.665 238.159 218.119 237.148C219.573 236.138 244.766 249.377 245.862 248.017C246.958 246.657 227.017 226.9 227.666 225.301C228.316 223.702 257.025 221.866 257.175 220.158C257.325 218.45 229.335 212.097 228.973 210.418C228.612 208.738 251.722 192.41 250.879 190.896C250.035 189.381 222.882 198.451 221.625 197.224C220.367 195.997 230.541 170.361 228.972 169.521C227.402 168.682 209.708 190.293 207.954 189.909C206.2 189.524 200.206 162.719 198.41 162.821C196.613 162.922 193.995 190.215 192.301 190.795C190.607 191.374 170.35 171.911 168.896 172.921C167.442 173.932 180.731 198.24 179.635 199.6C178.54 200.96 150.45 195.018 149.801 196.616C149.151 198.215 174.129 211.822 173.979 213.53C173.829 215.238 146.825 224.704 147.187 226.383C147.548 228.062 176.284 226.647 177.127 228.161C177.971 229.676 160.627 251.543 161.884 252.77Z" fill="#F07C00"/>
</g>
<defs>
<radialGradient id="paint0_radial_1410_60" cx="0" cy="0" r="1" gradientUnits="userSpaceOnUse" gradientTransform="translate(153.286 275.968) scale(153.189 29.0522)">
<stop/>
<stop offset="1" stop-opacity="0"/>
</radialGradient>
<radialGradient id="paint1_radial_1410_60" cx="0" cy="0" r="1" gradientUnits="userSpaceOnUse" gradientTransform="translate(75.9337 150.659) scale(391.632 265.674)">
<stop stop-color="#5D5D5D"/>
<stop offset="1" stop-color="#444444"/>
</radialGradient>
<linearGradient id="paint2_linear_1410_60" x1="20.1634" y1="83.4932" x2="116.277" y2="318.598" gradientUnits="userSpaceOnUse">
<stop stop-color="white"/>
<stop offset="1" stop-color="white" stop-opacity="0"/>
</linearGradient>
<linearGradient id="paint3_linear_1410_60" x1="281.185" y1="71.4053" x2="178.406" y2="160.969" gradientUnits="userSpaceOnUse">
<stop stop-color="#FDFDFD"/>
<stop offset="1" stop-color="#D4D4D4"/>
</linearGradient>
<linearGradient id="paint4_linear_1410_60" x1="5.49071" y1="31.1363" x2="129.105" y2="94.5795" gradientUnits="userSpaceOnUse">
<stop stop-color="#FDFDFD"/>
<stop offset="1" stop-color="#D4D4D4"/>
</linearGradient>
<linearGradient id="paint5_linear_1410_60" x1="56.3649" y1="101.2" x2="39.7012" y2="69.2892" gradientUnits="userSpaceOnUse">
<stop stop-color="#939393"/>
<stop offset="1" stop-color="#D9D9D9"/>
</linearGradient>
<clipPath id="clip0_1410_60">
<rect width="306.475" height="305.021" fill="white"/>
</clipPath>
</defs>
</svg>
